<svg xmlns="http://www.w3.org/2000/svg" viewBox="0 0 50 50"><g id="f03e5a9b-945a-49dc-829f-8b5ee5729ae2" data-name="icons"><path d="M46.67,13.33V10H43.33V6.67H40V3.33H36.67V0H13.33V3.33H10V6.67H6.67V10H3.33v3.33H0V36.67H3.33V40H6.67v3.33H10v3.34h3.33V50H36.67V46.67H40V43.33h3.33V40h3.34V36.67H50V13.33ZM30,10h3.33V23.33H30ZM16.67,10H20V23.33H16.67ZM43.33,30H40v3.33H36.67v3.34H33.33V40H16.67V36.67H13.33V33.33H10V30H6.67V23.33H10V30h3.33v3.33h3.34v3.34H33.33V33.33h3.34V30H40V23.33h3.33Z" fill="#fddb3a"/><rect x="16.67" y="10" width="3.33" height="13.33" fill="#241c15"/><rect x="6.67" y="23.33" width="3.33" height="6.67" fill="#241c15"/><rect x="40" y="23.33" width="3.33" height="6.67" fill="#241c15"/><rect x="10" y="30" width="3.33" height="3.33" fill="#241c15"/><rect x="36.67" y="30" width="3.33" height="3.33" fill="#241c15"/><rect x="13.33" y="33.33" width="3.33" height="3.33" fill="#241c15"/><rect x="16.67" y="36.67" width="16.67" height="3.33" fill="#241c15"/><rect x="33.33" y="33.33" width="3.33" height="3.33" fill="#241c15"/><rect x="30" y="10" width="3.33" height="13.33" fill="#241c15"/></g></svg>